<mxfile host="65bd71144e" pages="2">
    <diagram name="langgraph diagram" id="aWx2czu3TGaD3GsXuiyB">
        <mxGraphModel dx="3445" dy="2048" grid="1" gridSize="10" guides="1" tooltips="1" connect="1" arrows="1" fold="1" page="1" pageScale="1" pageWidth="850" pageHeight="1100" math="0" shadow="0">
            <root>
                <mxCell id="kevMmZuAw-uT_Xs43AQN-0"/>
                <mxCell id="kevMmZuAw-uT_Xs43AQN-1" parent="kevMmZuAw-uT_Xs43AQN-0"/>
                <mxCell id="Hx0NQmBB3NL6XE9tnf_9-9" style="edgeStyle=orthogonalEdgeStyle;rounded=1;orthogonalLoop=1;jettySize=auto;html=1;strokeWidth=2;curved=0;" parent="kevMmZuAw-uT_Xs43AQN-1" source="Hx0NQmBB3NL6XE9tnf_9-8" edge="1">
                    <mxGeometry relative="1" as="geometry">
                        <mxPoint x="-550" y="190" as="targetPoint"/>
                    </mxGeometry>
                </mxCell>
                <mxCell id="Hx0NQmBB3NL6XE9tnf_9-35" value="transfer_to_landing_page_agent" style="edgeLabel;html=1;align=center;verticalAlign=middle;resizable=0;points=[];" parent="Hx0NQmBB3NL6XE9tnf_9-9" connectable="0" vertex="1">
                    <mxGeometry x="-0.1008" y="3" relative="1" as="geometry">
                        <mxPoint x="89" y="-18" as="offset"/>
                    </mxGeometry>
                </mxCell>
                <mxCell id="Hx0NQmBB3NL6XE9tnf_9-10" style="edgeStyle=orthogonalEdgeStyle;rounded=0;orthogonalLoop=1;jettySize=auto;html=1;strokeWidth=2;" parent="kevMmZuAw-uT_Xs43AQN-1" source="Wk7LN2hPLHmPbH-YjtxP-3" target="Hx0NQmBB3NL6XE9tnf_9-8" edge="1">
                    <mxGeometry relative="1" as="geometry"/>
                </mxCell>
                <mxCell id="Hx0NQmBB3NL6XE9tnf_9-15" style="edgeStyle=orthogonalEdgeStyle;rounded=0;orthogonalLoop=1;jettySize=auto;html=1;fontColor=#3399FF;strokeColor=#6c8ebf;strokeWidth=2;dashed=1;dashPattern=8 8;endArrow=none;startFill=0;fillColor=#dae8fc;" parent="kevMmZuAw-uT_Xs43AQN-1" source="Wk7LN2hPLHmPbH-YjtxP-3" target="Hx0NQmBB3NL6XE9tnf_9-11" edge="1">
                    <mxGeometry relative="1" as="geometry"/>
                </mxCell>
                <mxCell id="Wk7LN2hPLHmPbH-YjtxP-3" value="Marketing Supervisor Agent" style="rounded=0;whiteSpace=wrap;html=1;strokeWidth=2;fontSize=16;fontStyle=1" parent="kevMmZuAw-uT_Xs43AQN-1" vertex="1">
                    <mxGeometry x="-83.12" y="-380" width="228.75" height="180" as="geometry"/>
                </mxCell>
                <mxCell id="YkPdmdQG5TqnP1PDuWtZ-16" value="&lt;b&gt;analysis_node:&amp;nbsp;&lt;/b&gt;&lt;div&gt;&lt;br&gt;&lt;/div&gt;&lt;div&gt;takes the document text (state[&quot;document_text&quot;]), which is the full text of the ingested pdf. It calls llm with custom prompt, ordering it to construct a structured output. This output is set as the &lt;i&gt;analysis&lt;/i&gt; field of the &lt;i&gt;LandingPageAgentState&lt;/i&gt;.&lt;div&gt;&lt;br&gt;&lt;/div&gt;&lt;div&gt;This output is&amp;nbsp;&lt;/div&gt;&lt;div&gt;- executive summary&amp;nbsp;&lt;/div&gt;&lt;div&gt;- key points&lt;/div&gt;&lt;div&gt;- domain (i/e: tech, entertainment, etc)&lt;/div&gt;&lt;/div&gt;" style="shape=note;whiteSpace=wrap;html=1;backgroundOutline=1;fontColor=#000000;darkOpacity=0.05;fillColor=#FFF9B2;strokeColor=none;fillStyle=solid;direction=west;gradientDirection=north;gradientColor=#FFF2A1;shadow=1;size=14;pointerEvents=1;align=left;labelPosition=center;verticalLabelPosition=middle;verticalAlign=middle;spacing=12;" parent="kevMmZuAw-uT_Xs43AQN-1" vertex="1">
                    <mxGeometry x="-1090" y="250" width="320" height="190" as="geometry"/>
                </mxCell>
                <mxCell id="YkPdmdQG5TqnP1PDuWtZ-17" value="&lt;b&gt;generate_query_node:&amp;nbsp;&lt;/b&gt;&lt;div&gt;&lt;br&gt;&lt;/div&gt;&lt;div&gt;takes the analysis field of the &lt;i&gt;LandingPageAgentState. &lt;/i&gt;It injects this into its custom prompt.&amp;nbsp;&lt;/div&gt;&lt;div&gt;&lt;br&gt;&lt;/div&gt;&lt;div&gt;Generates a short query to be used for image search/image generation. This is concatenated to the messages list in the state.&amp;nbsp;&lt;/div&gt;&lt;div&gt;&lt;br&gt;&lt;/div&gt;&lt;div&gt;&lt;i&gt;analysis ---&amp;gt; image query&lt;/i&gt;&lt;/div&gt;" style="shape=note;whiteSpace=wrap;html=1;backgroundOutline=1;fontColor=#000000;darkOpacity=0.05;fillColor=#FFF9B2;strokeColor=none;fillStyle=solid;direction=west;gradientDirection=north;gradientColor=#FFF2A1;shadow=1;size=20;pointerEvents=1;align=left;labelPosition=center;verticalLabelPosition=middle;verticalAlign=middle;spacing=7;" parent="kevMmZuAw-uT_Xs43AQN-1" vertex="1">
                    <mxGeometry x="-1090" y="503.51" width="320" height="180" as="geometry"/>
                </mxCell>
                <mxCell id="YkPdmdQG5TqnP1PDuWtZ-18" value="&lt;b&gt;image_gen_node:&amp;nbsp;&lt;/b&gt;&lt;div&gt;&lt;br&gt;&lt;/div&gt;&lt;div&gt;takes the previous message (the image query generated query from previous node), and uses that as the input for the image tool.&amp;nbsp;&lt;/div&gt;&lt;div&gt;&lt;br&gt;&lt;/div&gt;&lt;div&gt;Image tool is a function that takes a natural language query and sends that as a POST request to some image generation endpoint. (current implementation is using an image search api as a stand-in, so the returned value is an image url)&lt;/div&gt;&lt;div&gt;&lt;br&gt;&lt;/div&gt;&lt;div&gt;The tool message is concatenated to the messages list, containing the image url&amp;nbsp;&lt;/div&gt;" style="shape=note;whiteSpace=wrap;html=1;backgroundOutline=1;fontColor=#000000;darkOpacity=0.05;fillColor=#FFF9B2;strokeColor=none;fillStyle=solid;direction=west;gradientDirection=north;gradientColor=#FFF2A1;shadow=1;size=20;pointerEvents=1;align=left;labelPosition=center;verticalLabelPosition=middle;verticalAlign=middle;spacing=7;" parent="kevMmZuAw-uT_Xs43AQN-1" vertex="1">
                    <mxGeometry x="-1110" y="730.1700000000001" width="340" height="238.43" as="geometry"/>
                </mxCell>
                <mxCell id="YkPdmdQG5TqnP1PDuWtZ-20" style="edgeStyle=none;curved=1;rounded=0;orthogonalLoop=1;jettySize=auto;html=1;fontSize=12;startSize=8;endSize=8;strokeWidth=2;" parent="kevMmZuAw-uT_Xs43AQN-1" source="YkPdmdQG5TqnP1PDuWtZ-19" target="Wk7LN2hPLHmPbH-YjtxP-3" edge="1">
                    <mxGeometry relative="1" as="geometry"/>
                </mxCell>
                <mxCell id="YkPdmdQG5TqnP1PDuWtZ-19" value="document text" style="shape=note;whiteSpace=wrap;html=1;backgroundOutline=1;darkOpacity=0.05;" parent="kevMmZuAw-uT_Xs43AQN-1" vertex="1">
                    <mxGeometry x="-18.740000000000002" y="-680" width="100" height="130" as="geometry"/>
                </mxCell>
                <mxCell id="YkPdmdQG5TqnP1PDuWtZ-21" value="&lt;div&gt;&lt;b&gt;&lt;font style=&quot;font-size: 16px;&quot;&gt;LandingPageAgentState&lt;/font&gt;&lt;/b&gt;&lt;/div&gt;&lt;div&gt;&lt;b&gt;&lt;font style=&quot;font-size: 16px;&quot;&gt;&lt;br&gt;&lt;/font&gt;&lt;/b&gt;&lt;/div&gt;&lt;b&gt;messages&lt;/b&gt;: List[AnyMessage]&lt;div&gt;&lt;b&gt;analysis&lt;/b&gt;: str&lt;/div&gt;&lt;div&gt;&lt;b&gt;image_url&lt;/b&gt;: str&lt;/div&gt;&lt;div&gt;&lt;b&gt;html&lt;/b&gt;: str&lt;/div&gt;" style="rounded=1;whiteSpace=wrap;html=1;align=left;spacing=12;fillColor=#dae8fc;strokeColor=#6c8ebf;" parent="kevMmZuAw-uT_Xs43AQN-1" vertex="1">
                    <mxGeometry x="-980" y="80" width="210" height="130" as="geometry"/>
                </mxCell>
                <mxCell id="YkPdmdQG5TqnP1PDuWtZ-22" value="" style="group;strokeWidth=2;strokeColor=default;" parent="kevMmZuAw-uT_Xs43AQN-1" connectable="0" vertex="1">
                    <mxGeometry x="-680" y="220" width="260" height="1290" as="geometry"/>
                </mxCell>
                <mxCell id="YkPdmdQG5TqnP1PDuWtZ-10" value="&lt;span style=&quot;background-color: light-dark(#ffffff, var(--ge-dark-color, #121212));&quot;&gt;Landing Page Agent&lt;/span&gt;" style="rounded=0;whiteSpace=wrap;html=1;labelPosition=center;verticalLabelPosition=top;align=center;verticalAlign=bottom;fontSize=16;fontStyle=1" parent="YkPdmdQG5TqnP1PDuWtZ-22" vertex="1">
                    <mxGeometry width="260" height="1290" as="geometry"/>
                </mxCell>
                <mxCell id="YkPdmdQG5TqnP1PDuWtZ-11" style="edgeStyle=none;curved=1;rounded=0;orthogonalLoop=1;jettySize=auto;html=1;entryX=0.5;entryY=0;entryDx=0;entryDy=0;fontSize=12;startSize=8;endSize=8;strokeWidth=2;" parent="YkPdmdQG5TqnP1PDuWtZ-22" source="YkPdmdQG5TqnP1PDuWtZ-5" target="YkPdmdQG5TqnP1PDuWtZ-6" edge="1">
                    <mxGeometry relative="1" as="geometry"/>
                </mxCell>
                <mxCell id="YkPdmdQG5TqnP1PDuWtZ-5" value="analysis_node" style="ellipse;whiteSpace=wrap;html=1;aspect=fixed;strokeWidth=2;fontSize=14;fontStyle=0" parent="YkPdmdQG5TqnP1PDuWtZ-22" vertex="1">
                    <mxGeometry x="55" y="42.64462809917355" width="150" height="150" as="geometry"/>
                </mxCell>
                <mxCell id="YkPdmdQG5TqnP1PDuWtZ-13" style="edgeStyle=none;curved=1;rounded=0;orthogonalLoop=1;jettySize=auto;html=1;entryX=0.5;entryY=0;entryDx=0;entryDy=0;fontSize=12;startSize=8;endSize=8;strokeWidth=2;" parent="YkPdmdQG5TqnP1PDuWtZ-22" source="YkPdmdQG5TqnP1PDuWtZ-6" target="YkPdmdQG5TqnP1PDuWtZ-7" edge="1">
                    <mxGeometry relative="1" as="geometry"/>
                </mxCell>
                <mxCell id="YkPdmdQG5TqnP1PDuWtZ-6" value="generate_query_node" style="ellipse;whiteSpace=wrap;html=1;aspect=fixed;strokeWidth=2;" parent="YkPdmdQG5TqnP1PDuWtZ-22" vertex="1">
                    <mxGeometry x="55" y="298.5123966942149" width="150" height="150" as="geometry"/>
                </mxCell>
                <mxCell id="YkPdmdQG5TqnP1PDuWtZ-14" style="edgeStyle=none;curved=1;rounded=0;orthogonalLoop=1;jettySize=auto;html=1;entryX=0.5;entryY=0;entryDx=0;entryDy=0;fontSize=12;startSize=8;endSize=8;strokeWidth=2;" parent="YkPdmdQG5TqnP1PDuWtZ-22" source="YkPdmdQG5TqnP1PDuWtZ-7" target="YkPdmdQG5TqnP1PDuWtZ-8" edge="1">
                    <mxGeometry relative="1" as="geometry"/>
                </mxCell>
                <mxCell id="YkPdmdQG5TqnP1PDuWtZ-7" value="image_gen_node" style="ellipse;whiteSpace=wrap;html=1;aspect=fixed;strokeWidth=2;" parent="YkPdmdQG5TqnP1PDuWtZ-22" vertex="1">
                    <mxGeometry x="55" y="554.3801652892562" width="150" height="150" as="geometry"/>
                </mxCell>
                <mxCell id="YkPdmdQG5TqnP1PDuWtZ-15" style="edgeStyle=none;curved=1;rounded=0;orthogonalLoop=1;jettySize=auto;html=1;entryX=0.5;entryY=0;entryDx=0;entryDy=0;fontSize=12;startSize=8;endSize=8;strokeWidth=2;" parent="YkPdmdQG5TqnP1PDuWtZ-22" source="YkPdmdQG5TqnP1PDuWtZ-8" target="YkPdmdQG5TqnP1PDuWtZ-9" edge="1">
                    <mxGeometry relative="1" as="geometry"/>
                </mxCell>
                <mxCell id="YkPdmdQG5TqnP1PDuWtZ-8" value="inject_summary_node" style="ellipse;whiteSpace=wrap;html=1;aspect=fixed;strokeWidth=2;" parent="YkPdmdQG5TqnP1PDuWtZ-22" vertex="1">
                    <mxGeometry x="55" y="810.2479338842975" width="150" height="150" as="geometry"/>
                </mxCell>
                <mxCell id="YkPdmdQG5TqnP1PDuWtZ-9" value="render_html_node" style="ellipse;whiteSpace=wrap;html=1;aspect=fixed;strokeWidth=2;" parent="YkPdmdQG5TqnP1PDuWtZ-22" vertex="1">
                    <mxGeometry x="55" y="1066.1157024793388" width="150" height="150" as="geometry"/>
                </mxCell>
                <mxCell id="Hx0NQmBB3NL6XE9tnf_9-1" value="&lt;b&gt;LLM &lt;/b&gt;(gpt 3.5 turbo)" style="editableCssRules=.*;html=1;shape=image;verticalLabelPosition=top;labelBackgroundColor=#ffffff;verticalAlign=bottom;aspect=fixed;imageAspect=0;image=data:image/svg+xml,PHN2ZyB4bWxucz0iaHR0cDovL3d3dy53My5vcmcvMjAwMC9zdmciIHhtbG5zOnY9Imh0dHBzOi8vdmVjdGEuaW8vbmFubyIgd2lkdGg9IjIwIiBoZWlnaHQ9IjIwIiB2aWV3Qm94PSIwIDAgMjAgMjAiPiYjeGE7CTxzdHlsZSB0eXBlPSJ0ZXh0L2NzcyI+JiN4YTsJLnN0MHtmaWxsOiM0Mjg1ZjQ7fSYjeGE7CTwvc3R5bGU+JiN4YTsJPHBhdGggY2xhc3M9InN0MCIgZD0iTTEzLjMzIDB2Mi4zOGgtMi4xNlYwSDguODN2Mi4zOEg2LjY3VjBINC4yOXYyLjM4YTIgMiAwIDAgMC0xLjkxIDEuOTFIMHYyLjM4aDIuMzh2Mi4xNEgwdjIuMzhoMi4zOHYyLjE0SDB2Mi4zOGgyLjM4YTIgMiAwIDAgMCAxLjkxIDEuOTFWMjBoMi4zOHYtMi4zOGgyLjE2VjIwaDIuMzR2LTIuMzhoMi4xNlYyMGgyLjM4di0yLjM4YTIgMiAwIDAgMCAxLjkxLTEuOTFIMjB2LTIuMzhoLTIuMzh2LTIuMTRIMjBWOC44MWgtMi4zOFY2LjY3SDIwVjQuMjloLTIuMzhhMiAyIDAgMCAwLTEuOTEtMS45MVYwem0xLjUzIDE1LjI0SDUuMTRhLjM4LjM4IDAgMCAxLS4zOC0uMzhWNS4xNGEuMzguMzggMCAwIDEgLjM4LS4zOGg5LjcyYS4zOC4zOCAwIDAgMSAuMzguMzh2OS43MmEuMzguMzggMCAwIDEtLjM4LjM4em0tMi4wNy02LjEybC0zLjUgNC44NnYtMy42M0g3LjIybDMuNjEtNC44MXYzLjU4eiIvPiYjeGE7PC9zdmc+;labelPosition=center;align=center;spacing=4;" parent="kevMmZuAw-uT_Xs43AQN-1" vertex="1">
                    <mxGeometry x="-300" y="280" width="130" height="130" as="geometry"/>
                </mxCell>
                <mxCell id="Hx0NQmBB3NL6XE9tnf_9-5" value="&lt;b&gt;Image Gen Model &lt;/b&gt;(stable diffusion)" style="editableCssRules=.*;html=1;shape=image;verticalLabelPosition=top;labelBackgroundColor=#ffffff;verticalAlign=bottom;aspect=fixed;imageAspect=0;image=data:image/svg+xml,PHN2ZyB4bWxucz0iaHR0cDovL3d3dy53My5vcmcvMjAwMC9zdmciIHhtbG5zOnY9Imh0dHBzOi8vdmVjdGEuaW8vbmFubyIgd2lkdGg9IjIwIiBoZWlnaHQ9IjIwIiB2aWV3Qm94PSIwIDAgMjAgMjAiPiYjeGE7CTxzdHlsZSB0eXBlPSJ0ZXh0L2NzcyI+JiN4YTsJLnN0MHtmaWxsOiM0Mjg1ZjQ7fSYjeGE7CTwvc3R5bGU+JiN4YTsJPHBhdGggY2xhc3M9InN0MCIgZD0iTTEzLjMzIDB2Mi4zOGgtMi4xNlYwSDguODN2Mi4zOEg2LjY3VjBINC4yOXYyLjM4YTIgMiAwIDAgMC0xLjkxIDEuOTFIMHYyLjM4aDIuMzh2Mi4xNEgwdjIuMzhoMi4zOHYyLjE0SDB2Mi4zOGgyLjM4YTIgMiAwIDAgMCAxLjkxIDEuOTFWMjBoMi4zOHYtMi4zOGgyLjE2VjIwaDIuMzR2LTIuMzhoMi4xNlYyMGgyLjM4di0yLjM4YTIgMiAwIDAgMCAxLjkxLTEuOTFIMjB2LTIuMzhoLTIuMzh2LTIuMTRIMjBWOC44MWgtMi4zOFY2LjY3SDIwVjQuMjloLTIuMzhhMiAyIDAgMCAwLTEuOTEtMS45MVYwem0xLjUzIDE1LjI0SDUuMTRhLjM4LjM4IDAgMCAxLS4zOC0uMzhWNS4xNGEuMzguMzggMCAwIDEgLjM4LS4zOGg5LjcyYS4zOC4zOCAwIDAgMSAuMzguMzh2OS43MmEuMzguMzggMCAwIDEtLjM4LjM4em0tMi4wNy02LjEybC0zLjUgNC44NnYtMy42M0g3LjIybDMuNjEtNC44MXYzLjU4eiIvPiYjeGE7PC9zdmc+;labelPosition=center;align=center;" parent="kevMmZuAw-uT_Xs43AQN-1" vertex="1">
                    <mxGeometry x="-150" y="774.38" width="130" height="130" as="geometry"/>
                </mxCell>
                <mxCell id="Hx0NQmBB3NL6XE9tnf_9-39" style="edgeStyle=orthogonalEdgeStyle;rounded=0;orthogonalLoop=1;jettySize=auto;html=1;" parent="kevMmZuAw-uT_Xs43AQN-1" source="Hx0NQmBB3NL6XE9tnf_9-8" edge="1">
                    <mxGeometry relative="1" as="geometry">
                        <mxPoint x="320" y="-65" as="targetPoint"/>
                    </mxGeometry>
                </mxCell>
                <mxCell id="Hx0NQmBB3NL6XE9tnf_9-40" value="no sub agent call needed" style="edgeLabel;html=1;align=center;verticalAlign=middle;resizable=0;points=[];" parent="Hx0NQmBB3NL6XE9tnf_9-39" connectable="0" vertex="1">
                    <mxGeometry x="-0.1325" y="-2" relative="1" as="geometry">
                        <mxPoint x="18" y="-17" as="offset"/>
                    </mxGeometry>
                </mxCell>
                <mxCell id="Hx0NQmBB3NL6XE9tnf_9-42" style="edgeStyle=orthogonalEdgeStyle;rounded=0;orthogonalLoop=1;jettySize=auto;html=1;exitX=0;exitY=1;exitDx=0;exitDy=0;entryX=1;entryY=0.5;entryDx=0;entryDy=0;startArrow=classic;startFill=1;dashed=1;dashPattern=8 8;strokeWidth=2;curved=1;" parent="kevMmZuAw-uT_Xs43AQN-1" source="Hx0NQmBB3NL6XE9tnf_9-8" target="Hx0NQmBB3NL6XE9tnf_9-1" edge="1">
                    <mxGeometry relative="1" as="geometry"/>
                </mxCell>
                <mxCell id="Hx0NQmBB3NL6XE9tnf_9-8" value="sub agent needed?" style="rhombus;whiteSpace=wrap;html=1;strokeWidth=2;" parent="kevMmZuAw-uT_Xs43AQN-1" vertex="1">
                    <mxGeometry x="-48.75" y="-130" width="160" height="130" as="geometry"/>
                </mxCell>
                <mxCell id="Hx0NQmBB3NL6XE9tnf_9-11" value="&lt;div&gt;&lt;b&gt;&lt;font style=&quot;font-size: 16px;&quot;&gt;MarketingSupervisorState&lt;/font&gt;&lt;/b&gt;&lt;/div&gt;&lt;b&gt;&lt;div&gt;&lt;b&gt;&lt;br&gt;&lt;/b&gt;&lt;/div&gt;messages&lt;/b&gt;: List[AnyMessage]&lt;div&gt;&lt;b&gt;document_text&lt;/b&gt;: str&lt;/div&gt;&lt;div&gt;&lt;b&gt;remaining_steps&lt;/b&gt;: int&lt;/div&gt;&lt;div&gt;&lt;b&gt;html&lt;/b&gt;: str&lt;/div&gt;" style="rounded=1;whiteSpace=wrap;html=1;align=left;spacing=12;fillColor=#dae8fc;strokeColor=#6c8ebf;" parent="kevMmZuAw-uT_Xs43AQN-1" vertex="1">
                    <mxGeometry x="220" y="-350" width="240" height="120" as="geometry"/>
                </mxCell>
                <mxCell id="Hx0NQmBB3NL6XE9tnf_9-16" style="edgeStyle=orthogonalEdgeStyle;rounded=0;orthogonalLoop=1;jettySize=auto;html=1;entryX=0.115;entryY=-0.003;entryDx=0;entryDy=0;entryPerimeter=0;endArrow=none;startFill=0;dashed=1;dashPattern=8 8;strokeWidth=2;fillColor=#dae8fc;strokeColor=#6c8ebf;" parent="kevMmZuAw-uT_Xs43AQN-1" source="YkPdmdQG5TqnP1PDuWtZ-21" target="YkPdmdQG5TqnP1PDuWtZ-10" edge="1">
                    <mxGeometry relative="1" as="geometry"/>
                </mxCell>
                <mxCell id="Hx0NQmBB3NL6XE9tnf_9-18" style="edgeStyle=orthogonalEdgeStyle;rounded=0;orthogonalLoop=1;jettySize=auto;html=1;curved=1;dashed=1;dashPattern=8 8;strokeWidth=2;startArrow=classic;startFill=1;entryX=-0.045;entryY=0.443;entryDx=0;entryDy=0;entryPerimeter=0;" parent="kevMmZuAw-uT_Xs43AQN-1" source="YkPdmdQG5TqnP1PDuWtZ-5" target="Hx0NQmBB3NL6XE9tnf_9-1" edge="1">
                    <mxGeometry relative="1" as="geometry">
                        <mxPoint x="-310" y="340" as="targetPoint"/>
                    </mxGeometry>
                </mxCell>
                <mxCell id="Hx0NQmBB3NL6XE9tnf_9-19" style="edgeStyle=orthogonalEdgeStyle;rounded=0;orthogonalLoop=1;jettySize=auto;html=1;entryX=0.079;entryY=1.033;entryDx=0;entryDy=0;entryPerimeter=0;curved=1;dashed=1;dashPattern=8 8;strokeWidth=2;startArrow=classic;startFill=1;" parent="kevMmZuAw-uT_Xs43AQN-1" source="YkPdmdQG5TqnP1PDuWtZ-6" target="Hx0NQmBB3NL6XE9tnf_9-1" edge="1">
                    <mxGeometry relative="1" as="geometry"/>
                </mxCell>
                <mxCell id="Hx0NQmBB3NL6XE9tnf_9-23" style="edgeStyle=orthogonalEdgeStyle;rounded=0;orthogonalLoop=1;jettySize=auto;html=1;entryX=0.003;entryY=0.583;entryDx=0;entryDy=0;entryPerimeter=0;curved=1;dashed=1;dashPattern=8 8;strokeWidth=2;startArrow=classic;startFill=1;" parent="kevMmZuAw-uT_Xs43AQN-1" source="YkPdmdQG5TqnP1PDuWtZ-7" target="Hx0NQmBB3NL6XE9tnf_9-5" edge="1">
                    <mxGeometry relative="1" as="geometry"/>
                </mxCell>
                <mxCell id="Hx0NQmBB3NL6XE9tnf_9-24" style="edgeStyle=orthogonalEdgeStyle;rounded=0;orthogonalLoop=1;jettySize=auto;html=1;entryX=0.894;entryY=1.014;entryDx=0;entryDy=0;entryPerimeter=0;curved=1;dashed=1;dashPattern=8 8;strokeWidth=2;startArrow=classic;startFill=1;" parent="kevMmZuAw-uT_Xs43AQN-1" source="YkPdmdQG5TqnP1PDuWtZ-9" target="Hx0NQmBB3NL6XE9tnf_9-1" edge="1">
                    <mxGeometry relative="1" as="geometry"/>
                </mxCell>
                <mxCell id="Hx0NQmBB3NL6XE9tnf_9-27" style="edgeStyle=orthogonalEdgeStyle;rounded=1;orthogonalLoop=1;jettySize=auto;html=1;entryX=0.5;entryY=1;entryDx=0;entryDy=0;strokeWidth=2;curved=0;" parent="kevMmZuAw-uT_Xs43AQN-1" source="YkPdmdQG5TqnP1PDuWtZ-10" target="Hx0NQmBB3NL6XE9tnf_9-8" edge="1">
                    <mxGeometry relative="1" as="geometry">
                        <Array as="points">
                            <mxPoint x="-550" y="1610"/>
                            <mxPoint x="31" y="1610"/>
                        </Array>
                    </mxGeometry>
                </mxCell>
                <mxCell id="Hx0NQmBB3NL6XE9tnf_9-36" value="Return to Supervisor for Reflection" style="edgeLabel;html=1;align=center;verticalAlign=middle;resizable=0;points=[];" parent="Hx0NQmBB3NL6XE9tnf_9-27" connectable="0" vertex="1">
                    <mxGeometry x="-0.6312" y="-6" relative="1" as="geometry">
                        <mxPoint x="-43" y="-26" as="offset"/>
                    </mxGeometry>
                </mxCell>
                <mxCell id="Hx0NQmBB3NL6XE9tnf_9-29" style="edgeStyle=orthogonalEdgeStyle;rounded=0;orthogonalLoop=1;jettySize=auto;html=1;entryX=0;entryY=0.5;entryDx=0;entryDy=0;strokeWidth=2;fillColor=#fff2cc;strokeColor=#d6b656;endArrow=none;startFill=0;dashed=1;dashPattern=8 8;" parent="kevMmZuAw-uT_Xs43AQN-1" source="Hx0NQmBB3NL6XE9tnf_9-28" target="Wk7LN2hPLHmPbH-YjtxP-3" edge="1">
                    <mxGeometry relative="1" as="geometry"/>
                </mxCell>
                <mxCell id="Hx0NQmBB3NL6XE9tnf_9-28" value="if user uploads a document, it get&#39;s converted to text and added as the document_text field in the state. this is for convenience so that we can easily access it later via state[&quot;document_text&quot;].&amp;nbsp;&lt;div&gt;&lt;br&gt;&lt;/div&gt;&lt;div&gt;remaining_steps is a counter used internally by the create_supervisor loop and it sets an upper bound for how many steps we should take in the agent run before stopping.&amp;nbsp;&lt;/div&gt;&lt;div&gt;&lt;br&gt;&lt;/div&gt;&lt;div&gt;html is a field added for convenience. It is a place holder for the final html that gets generated if the landing page agent is called&amp;nbsp;&lt;/div&gt;" style="shape=note;whiteSpace=wrap;html=1;backgroundOutline=1;fontColor=#000000;darkOpacity=0.05;fillColor=#FFF9B2;strokeColor=none;fillStyle=solid;direction=west;gradientDirection=north;gradientColor=#FFF2A1;shadow=1;size=20;pointerEvents=1;align=left;labelPosition=center;verticalLabelPosition=middle;verticalAlign=middle;spacing=7;" parent="kevMmZuAw-uT_Xs43AQN-1" vertex="1">
                    <mxGeometry x="-490" y="-400" width="300" height="220" as="geometry"/>
                </mxCell>
                <mxCell id="Hx0NQmBB3NL6XE9tnf_9-30" style="edgeStyle=orthogonalEdgeStyle;rounded=0;orthogonalLoop=1;jettySize=auto;html=1;entryX=-0.036;entryY=0.547;entryDx=0;entryDy=0;entryPerimeter=0;fillColor=#fff2cc;strokeColor=#d6b656;dashed=1;dashPattern=8 8;strokeWidth=2;endArrow=none;startFill=0;" parent="kevMmZuAw-uT_Xs43AQN-1" source="YkPdmdQG5TqnP1PDuWtZ-16" target="YkPdmdQG5TqnP1PDuWtZ-5" edge="1">
                    <mxGeometry relative="1" as="geometry"/>
                </mxCell>
                <mxCell id="Hx0NQmBB3NL6XE9tnf_9-32" style="edgeStyle=orthogonalEdgeStyle;rounded=0;orthogonalLoop=1;jettySize=auto;html=1;entryX=0;entryY=0.5;entryDx=0;entryDy=0;fillColor=#fff2cc;strokeColor=#d6b656;strokeWidth=2;endArrow=none;startFill=0;dashed=1;dashPattern=8 8;" parent="kevMmZuAw-uT_Xs43AQN-1" source="YkPdmdQG5TqnP1PDuWtZ-17" target="YkPdmdQG5TqnP1PDuWtZ-6" edge="1">
                    <mxGeometry relative="1" as="geometry"/>
                </mxCell>
                <mxCell id="Hx0NQmBB3NL6XE9tnf_9-34" style="edgeStyle=orthogonalEdgeStyle;rounded=0;orthogonalLoop=1;jettySize=auto;html=1;entryX=0;entryY=0.5;entryDx=0;entryDy=0;strokeWidth=2;dashed=1;dashPattern=8 8;endArrow=none;startFill=0;fillColor=#fff2cc;strokeColor=#d6b656;" parent="kevMmZuAw-uT_Xs43AQN-1" source="YkPdmdQG5TqnP1PDuWtZ-18" target="YkPdmdQG5TqnP1PDuWtZ-7" edge="1">
                    <mxGeometry relative="1" as="geometry"/>
                </mxCell>
                <mxCell id="Hx0NQmBB3NL6XE9tnf_9-38" style="edgeStyle=orthogonalEdgeStyle;rounded=0;orthogonalLoop=1;jettySize=auto;html=1;entryX=0;entryY=0.5;entryDx=0;entryDy=0;strokeWidth=2;dashed=1;dashPattern=8 8;fillColor=#fff2cc;strokeColor=#d6b656;endArrow=none;startFill=0;" parent="kevMmZuAw-uT_Xs43AQN-1" source="Hx0NQmBB3NL6XE9tnf_9-37" target="YkPdmdQG5TqnP1PDuWtZ-8" edge="1">
                    <mxGeometry relative="1" as="geometry"/>
                </mxCell>
                <mxCell id="Hx0NQmBB3NL6XE9tnf_9-37" value="&lt;b&gt;inject_summary_node:&amp;nbsp;&lt;/b&gt;&lt;div&gt;&lt;b&gt;&lt;br&gt;&lt;/b&gt;&lt;/div&gt;&lt;div&gt;adds the analysis to the messages history instead of just being in state. This is not strictly needed, but serves the purpose of adding to messages history&amp;nbsp;&amp;nbsp;&lt;/div&gt;" style="shape=note;whiteSpace=wrap;html=1;backgroundOutline=1;fontColor=#000000;darkOpacity=0.05;fillColor=#FFF9B2;strokeColor=none;fillStyle=solid;direction=west;gradientDirection=north;gradientColor=#FFF2A1;shadow=1;size=20;pointerEvents=1;align=left;labelPosition=center;verticalLabelPosition=middle;verticalAlign=middle;spacing=7;" parent="kevMmZuAw-uT_Xs43AQN-1" vertex="1">
                    <mxGeometry x="-1110" y="1035.25" width="340" height="140" as="geometry"/>
                </mxCell>
                <mxCell id="Hx0NQmBB3NL6XE9tnf_9-41" value="END" style="ellipse;whiteSpace=wrap;html=1;aspect=fixed;fillColor=#f8cecc;strokeColor=#b85450;" parent="kevMmZuAw-uT_Xs43AQN-1" vertex="1">
                    <mxGeometry x="320" y="-112.5" width="95" height="95" as="geometry"/>
                </mxCell>
                <mxCell id="Hx0NQmBB3NL6XE9tnf_9-43" value="&lt;b&gt;render_html_node:&amp;nbsp;&lt;/b&gt;&lt;div&gt;&lt;b&gt;&lt;br&gt;&lt;/b&gt;&lt;/div&gt;&lt;div&gt;calls llm with the accumulated context and requests it generates the content for the different components within the html page.&amp;nbsp;&lt;br&gt;&lt;br&gt;injects the llm response into pre-formatted jinja html template.&amp;nbsp;&lt;/div&gt;&lt;div&gt;&lt;br&gt;&lt;/div&gt;&lt;div&gt;sets the &lt;i&gt;html&lt;/i&gt;&amp;nbsp;field of the state to the final html content&amp;nbsp;&amp;nbsp;&lt;/div&gt;" style="shape=note;whiteSpace=wrap;html=1;backgroundOutline=1;fontColor=#000000;darkOpacity=0.05;fillColor=#FFF9B2;strokeColor=none;fillStyle=solid;direction=west;gradientDirection=north;gradientColor=#FFF2A1;shadow=1;size=20;pointerEvents=1;align=left;labelPosition=center;verticalLabelPosition=middle;verticalAlign=middle;spacing=7;" parent="kevMmZuAw-uT_Xs43AQN-1" vertex="1">
                    <mxGeometry x="-1120" y="1286.12" width="350" height="170" as="geometry"/>
                </mxCell>
                <mxCell id="Hx0NQmBB3NL6XE9tnf_9-44" style="edgeStyle=orthogonalEdgeStyle;rounded=0;orthogonalLoop=1;jettySize=auto;html=1;entryX=-0.008;entryY=0.565;entryDx=0;entryDy=0;entryPerimeter=0;fillColor=#fff2cc;strokeColor=#d6b656;dashed=1;dashPattern=8 8;strokeWidth=2;endArrow=none;startFill=0;" parent="kevMmZuAw-uT_Xs43AQN-1" source="Hx0NQmBB3NL6XE9tnf_9-43" target="YkPdmdQG5TqnP1PDuWtZ-9" edge="1">
                    <mxGeometry relative="1" as="geometry"/>
                </mxCell>
                <mxCell id="Hx0NQmBB3NL6XE9tnf_9-47" style="edgeStyle=orthogonalEdgeStyle;rounded=0;orthogonalLoop=1;jettySize=auto;html=1;entryX=0;entryY=0.5;entryDx=0;entryDy=0;entryPerimeter=0;dashed=1;dashPattern=8 8;strokeWidth=2;fillColor=#fff2cc;strokeColor=#d6b656;endArrow=none;startFill=0;" parent="kevMmZuAw-uT_Xs43AQN-1" source="Hx0NQmBB3NL6XE9tnf_9-45" target="YkPdmdQG5TqnP1PDuWtZ-19" edge="1">
                    <mxGeometry relative="1" as="geometry">
                        <mxPoint x="-90.00000000000045" y="-612.5" as="targetPoint"/>
                    </mxGeometry>
                </mxCell>
                <mxCell id="Hx0NQmBB3NL6XE9tnf_9-45" value="document text is a string. Assume that there is a pdf processing pipeline right before this which converts&amp;nbsp;&lt;div&gt;&lt;br&gt;&lt;/div&gt;&lt;div&gt;&lt;i&gt;.pdf ---&amp;gt; .txt&amp;nbsp;&lt;/i&gt;&lt;/div&gt;" style="shape=note;whiteSpace=wrap;html=1;backgroundOutline=1;fontColor=#000000;darkOpacity=0.05;fillColor=#FFF9B2;strokeColor=none;fillStyle=solid;direction=west;gradientDirection=north;gradientColor=#FFF2A1;shadow=1;size=20;pointerEvents=1;align=left;labelPosition=center;verticalLabelPosition=middle;verticalAlign=middle;spacing=7;" parent="kevMmZuAw-uT_Xs43AQN-1" vertex="1">
                    <mxGeometry x="-450" y="-687.5" width="310" height="145" as="geometry"/>
                </mxCell>
                <mxCell id="Hx0NQmBB3NL6XE9tnf_9-49" style="edgeStyle=orthogonalEdgeStyle;rounded=0;orthogonalLoop=1;jettySize=auto;html=1;fillColor=#fff2cc;strokeColor=#d6b656;dashed=1;dashPattern=8 8;strokeWidth=2;endArrow=none;startFill=0;entryX=1;entryY=1;entryDx=0;entryDy=0;curved=1;" parent="kevMmZuAw-uT_Xs43AQN-1" source="Hx0NQmBB3NL6XE9tnf_9-48" target="Hx0NQmBB3NL6XE9tnf_9-8" edge="1">
                    <mxGeometry relative="1" as="geometry"/>
                </mxCell>
                <mxCell id="Hx0NQmBB3NL6XE9tnf_9-48" value="marketing supervisor initially calls a custom prompt which includes the user&#39;s query, the document text (if present) and dynamically injected sub agent descriptions.&amp;nbsp;&lt;div&gt;&lt;br&gt;&lt;/div&gt;&lt;div&gt;If sub agent is needed, it will generate a tool call and execute the ReAct loop with the sub agents acting as &lt;i&gt;tools.&amp;nbsp;&lt;/i&gt;&lt;/div&gt;&lt;div&gt;&lt;br&gt;&lt;/div&gt;&lt;div&gt;If no sub agent is needed, then the generated output will be just an AI message and the graph engine will end by delivering &lt;i&gt;state[&quot;messages&quot;][-1]&lt;/i&gt;&lt;/div&gt;" style="shape=note;whiteSpace=wrap;html=1;backgroundOutline=1;fontColor=#000000;darkOpacity=0.05;fillColor=#FFF9B2;strokeColor=none;fillStyle=solid;direction=west;gradientDirection=north;gradientColor=#FFF2A1;shadow=1;size=20;pointerEvents=1;align=left;labelPosition=center;verticalLabelPosition=middle;verticalAlign=middle;spacing=7;" parent="kevMmZuAw-uT_Xs43AQN-1" vertex="1">
                    <mxGeometry x="230" y="35" width="300" height="220" as="geometry"/>
                </mxCell>
            </root>
        </mxGraphModel>
    </diagram>
    <diagram name="potential multi agent strategy" id="eoNHyfq8W7Ay5UINYcxs">
        <mxGraphModel dx="3630" dy="1958" grid="1" gridSize="10" guides="1" tooltips="1" connect="1" arrows="1" fold="1" page="1" pageScale="1" pageWidth="850" pageHeight="1100" math="0" shadow="0">
            <root>
                <mxCell id="kiytVpqm-zid71WI1DVR-0"/>
                <mxCell id="kiytVpqm-zid71WI1DVR-1" parent="kiytVpqm-zid71WI1DVR-0"/>
                <mxCell id="VsEewag_OaPmwJhBvUyz-5" value="" style="group" vertex="1" connectable="0" parent="kiytVpqm-zid71WI1DVR-1">
                    <mxGeometry x="795" y="-210" width="1105" height="820" as="geometry"/>
                </mxCell>
                <mxCell id="7g8iDs4rSWbHW3PTUvdV-1" value="" style="rounded=0;whiteSpace=wrap;html=1;" parent="VsEewag_OaPmwJhBvUyz-5" vertex="1">
                    <mxGeometry width="1105" height="820" as="geometry"/>
                </mxCell>
                <mxCell id="VsEewag_OaPmwJhBvUyz-0" value="&lt;font style=&quot;font-size: 24px;&quot;&gt;Title&lt;/font&gt;" style="rounded=0;whiteSpace=wrap;html=1;" vertex="1" parent="VsEewag_OaPmwJhBvUyz-5">
                    <mxGeometry x="25" y="30" width="510" height="100" as="geometry"/>
                </mxCell>
                <mxCell id="VsEewag_OaPmwJhBvUyz-1" value="&lt;font style=&quot;font-size: 24px;&quot;&gt;Image&lt;/font&gt;" style="rounded=0;whiteSpace=wrap;html=1;fillColor=#f5f5f5;fontColor=#333333;strokeColor=#666666;" vertex="1" parent="VsEewag_OaPmwJhBvUyz-5">
                    <mxGeometry x="555" y="30" width="520" height="340" as="geometry"/>
                </mxCell>
                <mxCell id="VsEewag_OaPmwJhBvUyz-2" value="&lt;font style=&quot;font-size: 24px;&quot;&gt;Tagline&lt;/font&gt;" style="rounded=0;whiteSpace=wrap;html=1;" vertex="1" parent="VsEewag_OaPmwJhBvUyz-5">
                    <mxGeometry x="25" y="154.38" width="510" height="215.62" as="geometry"/>
                </mxCell>
                <mxCell id="VsEewag_OaPmwJhBvUyz-3" value="&lt;span style=&quot;font-size: 24px;&quot;&gt;Key Points&lt;/span&gt;" style="rounded=0;whiteSpace=wrap;html=1;" vertex="1" parent="VsEewag_OaPmwJhBvUyz-5">
                    <mxGeometry x="25" y="390" width="1050" height="150" as="geometry"/>
                </mxCell>
                <mxCell id="VsEewag_OaPmwJhBvUyz-4" value="&lt;span style=&quot;font-size: 24px;&quot;&gt;Summary&lt;/span&gt;" style="rounded=0;whiteSpace=wrap;html=1;" vertex="1" parent="VsEewag_OaPmwJhBvUyz-5">
                    <mxGeometry x="25" y="560" width="1050" height="230" as="geometry"/>
                </mxCell>
                <mxCell id="VsEewag_OaPmwJhBvUyz-10" style="edgeStyle=none;html=1;rounded=0;curved=1;exitX=0;exitY=0.5;exitDx=0;exitDy=0;dashed=1;dashPattern=8 8;" edge="1" parent="kiytVpqm-zid71WI1DVR-1" source="VsEewag_OaPmwJhBvUyz-6" target="VsEewag_OaPmwJhBvUyz-1">
                    <mxGeometry relative="1" as="geometry"/>
                </mxCell>
                <mxCell id="VsEewag_OaPmwJhBvUyz-6" value="&lt;font style=&quot;font-size: 24px;&quot;&gt;Image Agent&lt;/font&gt;" style="rounded=0;whiteSpace=wrap;html=1;" vertex="1" parent="kiytVpqm-zid71WI1DVR-1">
                    <mxGeometry x="2160" y="150" width="300" height="91.24" as="geometry"/>
                </mxCell>
                <mxCell id="VsEewag_OaPmwJhBvUyz-11" style="edgeStyle=none;html=1;entryX=0;entryY=0.5;entryDx=0;entryDy=0;exitX=1;exitY=0.25;exitDx=0;exitDy=0;dashed=1;dashPattern=8 8;" edge="1" parent="kiytVpqm-zid71WI1DVR-1" source="VsEewag_OaPmwJhBvUyz-9" target="VsEewag_OaPmwJhBvUyz-0">
                    <mxGeometry relative="1" as="geometry"/>
                </mxCell>
                <mxCell id="VsEewag_OaPmwJhBvUyz-12" style="edgeStyle=none;html=1;entryX=0;entryY=0.5;entryDx=0;entryDy=0;dashed=1;dashPattern=8 8;" edge="1" parent="kiytVpqm-zid71WI1DVR-1" source="VsEewag_OaPmwJhBvUyz-9" target="VsEewag_OaPmwJhBvUyz-2">
                    <mxGeometry relative="1" as="geometry"/>
                </mxCell>
                <mxCell id="VsEewag_OaPmwJhBvUyz-13" style="edgeStyle=none;html=1;entryX=0;entryY=0.5;entryDx=0;entryDy=0;exitX=1;exitY=0.5;exitDx=0;exitDy=0;dashed=1;dashPattern=8 8;" edge="1" parent="kiytVpqm-zid71WI1DVR-1" source="VsEewag_OaPmwJhBvUyz-9" target="VsEewag_OaPmwJhBvUyz-3">
                    <mxGeometry relative="1" as="geometry"/>
                </mxCell>
                <mxCell id="VsEewag_OaPmwJhBvUyz-14" style="edgeStyle=none;html=1;exitX=1;exitY=0.75;exitDx=0;exitDy=0;entryX=0;entryY=0.5;entryDx=0;entryDy=0;dashed=1;dashPattern=8 8;" edge="1" parent="kiytVpqm-zid71WI1DVR-1" source="VsEewag_OaPmwJhBvUyz-9" target="VsEewag_OaPmwJhBvUyz-4">
                    <mxGeometry relative="1" as="geometry"/>
                </mxCell>
                <mxCell id="VsEewag_OaPmwJhBvUyz-9" value="&lt;span style=&quot;font-size: 24px;&quot;&gt;Text Content Agent&lt;/span&gt;" style="rounded=0;whiteSpace=wrap;html=1;" vertex="1" parent="kiytVpqm-zid71WI1DVR-1">
                    <mxGeometry x="130" y="80" width="300" height="91.24" as="geometry"/>
                </mxCell>
                <mxCell id="zGESKgufzsKWtKn-zQk7-2" style="edgeStyle=orthogonalEdgeStyle;rounded=0;orthogonalLoop=1;jettySize=auto;html=1;strokeWidth=2;" edge="1" parent="kiytVpqm-zid71WI1DVR-1" source="zGESKgufzsKWtKn-zQk7-4" target="zGESKgufzsKWtKn-zQk7-27">
                    <mxGeometry relative="1" as="geometry"/>
                </mxCell>
                <mxCell id="zGESKgufzsKWtKn-zQk7-4" value="Marketing Supervisor Agent" style="rounded=0;whiteSpace=wrap;html=1;strokeWidth=2;fontSize=16;fontStyle=1;fillColor=#dae8fc;strokeColor=#6c8ebf;" vertex="1" parent="kiytVpqm-zid71WI1DVR-1">
                    <mxGeometry x="-613.12" y="-532.5" width="228.75" height="180" as="geometry"/>
                </mxCell>
                <mxCell id="zGESKgufzsKWtKn-zQk7-8" style="edgeStyle=none;curved=1;rounded=0;orthogonalLoop=1;jettySize=auto;html=1;fontSize=12;startSize=8;endSize=8;strokeWidth=2;" edge="1" parent="kiytVpqm-zid71WI1DVR-1" source="zGESKgufzsKWtKn-zQk7-9" target="zGESKgufzsKWtKn-zQk7-4">
                    <mxGeometry relative="1" as="geometry"/>
                </mxCell>
                <mxCell id="zGESKgufzsKWtKn-zQk7-9" value="document text" style="shape=note;whiteSpace=wrap;html=1;backgroundOutline=1;darkOpacity=0.05;fontStyle=1;strokeWidth=2;" vertex="1" parent="kiytVpqm-zid71WI1DVR-1">
                    <mxGeometry x="-548.75" y="-810" width="100" height="130" as="geometry"/>
                </mxCell>
                <mxCell id="zGESKgufzsKWtKn-zQk7-24" style="edgeStyle=orthogonalEdgeStyle;rounded=0;orthogonalLoop=1;jettySize=auto;html=1;strokeWidth=2;entryX=0;entryY=0.5;entryDx=0;entryDy=0;" edge="1" parent="kiytVpqm-zid71WI1DVR-1" source="zGESKgufzsKWtKn-zQk7-27" target="zGESKgufzsKWtKn-zQk7-43">
                    <mxGeometry relative="1" as="geometry">
                        <mxPoint x="-210" y="-217.5" as="targetPoint"/>
                        <Array as="points"/>
                    </mxGeometry>
                </mxCell>
                <mxCell id="zGESKgufzsKWtKn-zQk7-25" value="no sub agent call needed" style="edgeLabel;html=1;align=center;verticalAlign=middle;resizable=0;points=[];fontStyle=1" connectable="0" vertex="1" parent="zGESKgufzsKWtKn-zQk7-24">
                    <mxGeometry x="-0.1325" y="-2" relative="1" as="geometry">
                        <mxPoint x="5" y="-27" as="offset"/>
                    </mxGeometry>
                </mxCell>
                <mxCell id="zGESKgufzsKWtKn-zQk7-27" value="sub agent needed?" style="rhombus;whiteSpace=wrap;html=1;strokeWidth=2;fontStyle=1" vertex="1" parent="kiytVpqm-zid71WI1DVR-1">
                    <mxGeometry x="-578.75" y="-220" width="160" height="130" as="geometry"/>
                </mxCell>
                <mxCell id="zGESKgufzsKWtKn-zQk7-43" value="END" style="ellipse;whiteSpace=wrap;html=1;aspect=fixed;fillColor=#f8cecc;strokeColor=#b85450;fontStyle=1" vertex="1" parent="kiytVpqm-zid71WI1DVR-1">
                    <mxGeometry x="-230" y="-202.5" width="95" height="95" as="geometry"/>
                </mxCell>
                <mxCell id="zGESKgufzsKWtKn-zQk7-51" value="&lt;span style=&quot;&quot;&gt;Image Agent&lt;/span&gt;" style="rounded=0;whiteSpace=wrap;html=1;labelPosition=center;verticalLabelPosition=middle;align=center;verticalAlign=middle;fontSize=16;fontStyle=1;strokeWidth=2;fillColor=#e1d5e7;strokeColor=#9673a6;labelBackgroundColor=none;" vertex="1" parent="kiytVpqm-zid71WI1DVR-1">
                    <mxGeometry x="-380" y="57.5" width="260" height="222.5" as="geometry"/>
                </mxCell>
                <mxCell id="zGESKgufzsKWtKn-zQk7-52" style="edgeStyle=none;html=1;entryX=0.881;entryY=-0.005;entryDx=0;entryDy=0;entryPerimeter=0;strokeWidth=2;" edge="1" parent="kiytVpqm-zid71WI1DVR-1" source="zGESKgufzsKWtKn-zQk7-27">
                    <mxGeometry relative="1" as="geometry">
                        <mxPoint x="-644.0599999999995" y="56.38750000000027" as="targetPoint"/>
                    </mxGeometry>
                </mxCell>
                <mxCell id="zGESKgufzsKWtKn-zQk7-53" style="edgeStyle=none;html=1;entryX=0.152;entryY=-0.002;entryDx=0;entryDy=0;entryPerimeter=0;strokeWidth=2;" edge="1" parent="kiytVpqm-zid71WI1DVR-1" source="zGESKgufzsKWtKn-zQk7-27" target="zGESKgufzsKWtKn-zQk7-51">
                    <mxGeometry relative="1" as="geometry"/>
                </mxCell>
                <mxCell id="zGESKgufzsKWtKn-zQk7-54" value="&lt;div&gt;&lt;font style=&quot;font-size: 24px;&quot;&gt;messages: List[AnyMessage]&lt;/font&gt;&lt;/div&gt;&lt;font style=&quot;font-size: 24px;&quot;&gt;title: str&lt;/font&gt;&lt;div&gt;&lt;font style=&quot;font-size: 24px;&quot;&gt;tagline: str&amp;nbsp;&lt;/font&gt;&lt;/div&gt;&lt;div&gt;&lt;span style=&quot;font-size: 24px;&quot;&gt;keypoints: List[str]&lt;/span&gt;&lt;/div&gt;&lt;div&gt;&lt;span style=&quot;font-size: 24px;&quot;&gt;summary: str&amp;nbsp;&lt;/span&gt;&lt;/div&gt;&lt;div&gt;&lt;span style=&quot;font-size: 24px;&quot;&gt;image_url: str&lt;/span&gt;&lt;/div&gt;" style="rounded=0;whiteSpace=wrap;html=1;align=left;spacing=12;fillColor=#f5f5f5;strokeColor=#666666;fontColor=#333333;" vertex="1" parent="kiytVpqm-zid71WI1DVR-1">
                    <mxGeometry x="-170" y="-537.5" width="420" height="190" as="geometry"/>
                </mxCell>
                <mxCell id="xsvImYGExAWsjxSbAcl_-4" style="edgeStyle=orthogonalEdgeStyle;html=1;entryX=0;entryY=0.5;entryDx=0;entryDy=0;strokeWidth=2;" edge="1" parent="kiytVpqm-zid71WI1DVR-1" source="zGESKgufzsKWtKn-zQk7-55" target="zGESKgufzsKWtKn-zQk7-27">
                    <mxGeometry relative="1" as="geometry">
                        <Array as="points">
                            <mxPoint x="-920" y="440"/>
                            <mxPoint x="-920" y="-155"/>
                        </Array>
                    </mxGeometry>
                </mxCell>
                <mxCell id="zGESKgufzsKWtKn-zQk7-55" value="HTML Compiler Tool" style="ellipse;whiteSpace=wrap;html=1;strokeWidth=2;fontStyle=1" vertex="1" parent="kiytVpqm-zid71WI1DVR-1">
                    <mxGeometry x="-583.12" y="380" width="168.75" height="120" as="geometry"/>
                </mxCell>
                <mxCell id="zGESKgufzsKWtKn-zQk7-56" style="edgeStyle=none;html=1;entryX=0.197;entryY=0.064;entryDx=0;entryDy=0;entryPerimeter=0;exitX=0.687;exitY=1.003;exitDx=0;exitDy=0;exitPerimeter=0;strokeWidth=2;" edge="1" parent="kiytVpqm-zid71WI1DVR-1" target="zGESKgufzsKWtKn-zQk7-55">
                    <mxGeometry relative="1" as="geometry">
                        <mxPoint x="-694.4999999999995" y="280.6675" as="sourcePoint"/>
                    </mxGeometry>
                </mxCell>
                <mxCell id="zGESKgufzsKWtKn-zQk7-57" style="edgeStyle=none;html=1;entryX=0.713;entryY=0.044;entryDx=0;entryDy=0;entryPerimeter=0;exitX=0.25;exitY=1;exitDx=0;exitDy=0;strokeWidth=2;" edge="1" parent="kiytVpqm-zid71WI1DVR-1" source="zGESKgufzsKWtKn-zQk7-51" target="zGESKgufzsKWtKn-zQk7-55">
                    <mxGeometry relative="1" as="geometry"/>
                </mxCell>
                <mxCell id="zGESKgufzsKWtKn-zQk7-58" value="Final HTML Document" style="shape=note;whiteSpace=wrap;html=1;backgroundOutline=1;darkOpacity=0.05;strokeWidth=2;fontStyle=1" vertex="1" parent="kiytVpqm-zid71WI1DVR-1">
                    <mxGeometry x="-568.11" y="580" width="138.75" height="190" as="geometry"/>
                </mxCell>
                <mxCell id="zGESKgufzsKWtKn-zQk7-59" style="edgeStyle=none;html=1;entryX=0.5;entryY=0;entryDx=0;entryDy=0;entryPerimeter=0;strokeWidth=2;" edge="1" parent="kiytVpqm-zid71WI1DVR-1" source="zGESKgufzsKWtKn-zQk7-55" target="zGESKgufzsKWtKn-zQk7-58">
                    <mxGeometry relative="1" as="geometry"/>
                </mxCell>
                <mxCell id="xsvImYGExAWsjxSbAcl_-3" value="&lt;span style=&quot;&quot;&gt;Text Content Agent&lt;/span&gt;" style="rounded=0;whiteSpace=wrap;html=1;labelPosition=center;verticalLabelPosition=middle;align=center;verticalAlign=middle;fontSize=16;fontStyle=1;strokeWidth=2;fillColor=#fff2cc;strokeColor=#d6b656;labelBackgroundColor=none;" vertex="1" parent="kiytVpqm-zid71WI1DVR-1">
                    <mxGeometry x="-828.11" y="57.5" width="260" height="222.5" as="geometry"/>
                </mxCell>
                <mxCell id="DfTiufG7eJcMm-ux6_9e-0" value="&lt;b&gt;content&lt;/b&gt;: &quot;generate a brochure using the following document: &#39;&lt;i&gt;Intel Panther Lake is a ....&#39;&amp;nbsp;&lt;/i&gt;&quot;" style="rounded=0;whiteSpace=wrap;html=1;fillColor=#d5e8d4;strokeColor=#82b366;spacing=12;align=left;" vertex="1" parent="kiytVpqm-zid71WI1DVR-1">
                    <mxGeometry x="-550" y="870" width="540" height="60" as="geometry"/>
                </mxCell>
                <mxCell id="DfTiufG7eJcMm-ux6_9e-1" value="content: &quot; &quot;&lt;div&gt;tool_calls: [&lt;/div&gt;&lt;div&gt;&lt;span style=&quot;white-space: pre;&quot;&gt;&#x9;&lt;/span&gt;{&lt;/div&gt;&lt;div&gt;&lt;span style=&quot;white-space: pre;&quot;&gt;&#x9;&lt;/span&gt;&lt;span style=&quot;white-space: pre;&quot;&gt;&#x9;&lt;/span&gt;name: transfer_to_image_agent&lt;/div&gt;&lt;div&gt;&lt;span style=&quot;white-space: pre;&quot;&gt;&#x9;&lt;/span&gt;&lt;span style=&quot;white-space: pre;&quot;&gt;&#x9;&lt;/span&gt;arguments: ...&lt;br&gt;&lt;/div&gt;&lt;div&gt;&lt;span style=&quot;white-space: pre;&quot;&gt;&#x9;&lt;/span&gt;},&amp;nbsp;&lt;br&gt;&lt;/div&gt;&lt;div&gt;&lt;span style=&quot;white-space: pre;&quot;&gt;&#x9;&lt;/span&gt;{&lt;br&gt;&lt;/div&gt;&lt;div&gt;&lt;span style=&quot;white-space: pre;&quot;&gt;&#x9;&lt;/span&gt;&lt;span style=&quot;white-space: pre;&quot;&gt;&#x9;&lt;/span&gt;name: transfer_to_text_content_agent&lt;br&gt;&lt;/div&gt;&lt;div&gt;&lt;span style=&quot;white-space: pre;&quot;&gt;&#x9;&lt;/span&gt;&lt;span style=&quot;white-space: pre;&quot;&gt;&#x9;&lt;/span&gt;arguments: ...&lt;br&gt;&lt;span style=&quot;white-space: pre;&quot;&gt;&#x9;&lt;/span&gt;}&lt;br&gt;&lt;/div&gt;&lt;div&gt;]&lt;/div&gt;" style="rounded=0;whiteSpace=wrap;html=1;fillColor=#dae8fc;strokeColor=#6c8ebf;align=left;spacing=12;" vertex="1" parent="kiytVpqm-zid71WI1DVR-1">
                    <mxGeometry x="-550" y="940" width="540" height="180" as="geometry"/>
                </mxCell>
                <mxCell id="DfTiufG7eJcMm-ux6_9e-2" value="content: &quot;analyze the document text and create a structured json output that contains &lt;i&gt;title, keypoints, tagline, &lt;/i&gt;and &lt;i&gt;summary&lt;/i&gt;" style="rounded=0;whiteSpace=wrap;html=1;fillColor=#d5e8d4;strokeColor=#82b366;align=left;spacing=12;" vertex="1" parent="kiytVpqm-zid71WI1DVR-1">
                    <mxGeometry x="-550" y="1130" width="540" height="70" as="geometry"/>
                </mxCell>
                <mxCell id="DfTiufG7eJcMm-ux6_9e-3" value="content: &quot;{title: ..., keypoints: ..., tagline: ..., summary: ...}&quot;" style="rounded=0;whiteSpace=wrap;html=1;fillColor=#fff2cc;strokeColor=#d6b656;align=left;spacing=12;" vertex="1" parent="kiytVpqm-zid71WI1DVR-1">
                    <mxGeometry x="-550" y="1210" width="540" height="70" as="geometry"/>
                </mxCell>
                <mxCell id="DfTiufG7eJcMm-ux6_9e-4" value="content: &quot;analyze the document text and create a curated image query to be used for an image generation model&quot;&amp;nbsp;" style="rounded=0;whiteSpace=wrap;html=1;fillColor=#d5e8d4;strokeColor=#82b366;align=left;spacing=12;" vertex="1" parent="kiytVpqm-zid71WI1DVR-1">
                    <mxGeometry x="-550" y="1290" width="540" height="70" as="geometry"/>
                </mxCell>
                <mxCell id="DfTiufG7eJcMm-ux6_9e-5" value="content: &quot; &quot;&amp;nbsp;&lt;div&gt;tool_calls:&amp;nbsp;&lt;/div&gt;&lt;div&gt;&lt;span style=&quot;white-space: pre;&quot;&gt;&#x9;&lt;/span&gt;[&lt;br&gt;&lt;/div&gt;&lt;div&gt;&lt;span style=&quot;white-space: pre;&quot;&gt;&#x9;&lt;/span&gt;&lt;span style=&quot;white-space: pre;&quot;&gt;&#x9;&lt;/span&gt;name: image_generation_tool,&amp;nbsp;&lt;br&gt;&lt;/div&gt;&lt;div&gt;&lt;span style=&quot;white-space: pre;&quot;&gt;&#x9;&lt;/span&gt;&lt;span style=&quot;white-space: pre;&quot;&gt;&#x9;&lt;/span&gt;arguments:&amp;nbsp;&lt;br&gt;&lt;/div&gt;&lt;div&gt;&lt;span style=&quot;white-space: pre;&quot;&gt;&#x9;&lt;/span&gt;&lt;span style=&quot;white-space: pre;&quot;&gt;&#x9;&lt;/span&gt;&lt;span style=&quot;white-space: pre;&quot;&gt;&#x9;&lt;/span&gt;{&lt;br&gt;&lt;/div&gt;&lt;div&gt;&lt;span style=&quot;white-space: pre;&quot;&gt;&#x9;&lt;/span&gt;&lt;span style=&quot;white-space: pre;&quot;&gt;&#x9;&lt;/span&gt;&lt;span style=&quot;white-space: pre;&quot;&gt;&#x9;&lt;/span&gt;&lt;span style=&quot;white-space: pre;&quot;&gt;&#x9;&lt;/span&gt;query: &lt;i&gt;&quot;&lt;span style=&quot;color: rgb(0, 0, 0); background-color: transparent;&quot;&gt;Create a 1080p resolution image of an Intel Core processor with....&quot;&lt;/span&gt;&lt;/i&gt;&lt;br&gt;&lt;/div&gt;&lt;div&gt;&lt;span style=&quot;color: rgb(0, 0, 0); background-color: transparent;&quot;&gt;&lt;span style=&quot;font-style: italic; white-space: pre;&quot;&gt;&#x9;&lt;/span&gt;&lt;span style=&quot;font-style: italic; white-space: pre;&quot;&gt;&#x9;&lt;/span&gt;&lt;span style=&quot;font-style: italic; white-space: pre;&quot;&gt;&#x9;&lt;/span&gt;}&lt;br&gt;&lt;/span&gt;&lt;/div&gt;&lt;div&gt;&lt;span style=&quot;color: rgb(0, 0, 0); background-color: transparent;&quot;&gt;&lt;span style=&quot;white-space: pre;&quot;&gt;&#x9;&lt;/span&gt;]&lt;/span&gt;&lt;/div&gt;" style="rounded=0;whiteSpace=wrap;html=1;fillColor=#e1d5e7;strokeColor=#9673a6;align=left;spacing=12;" vertex="1" parent="kiytVpqm-zid71WI1DVR-1">
                    <mxGeometry x="-550" y="1370" width="540" height="160" as="geometry"/>
                </mxCell>
                <mxCell id="DfTiufG7eJcMm-ux6_9e-6" value="content: &quot;https://generated_image_url&quot;" style="rounded=0;whiteSpace=wrap;html=1;fillColor=#fad9d5;strokeColor=#ae4132;align=left;spacing=12;" vertex="1" parent="kiytVpqm-zid71WI1DVR-1">
                    <mxGeometry x="-550" y="1540" width="540" height="60" as="geometry"/>
                </mxCell>
                <mxCell id="DfTiufG7eJcMm-ux6_9e-14" value="" style="group" vertex="1" connectable="0" parent="kiytVpqm-zid71WI1DVR-1">
                    <mxGeometry x="-1040" y="870" width="450" height="180" as="geometry"/>
                </mxCell>
                <mxCell id="DfTiufG7eJcMm-ux6_9e-8" value="&lt;font style=&quot;font-size: 24px;&quot;&gt;HumanMessage&lt;/font&gt;&lt;div&gt;&lt;font style=&quot;font-size: 24px;&quot;&gt;AIMessage (Marketing Supervisor)&lt;/font&gt;&lt;/div&gt;&lt;div&gt;&lt;font style=&quot;font-size: 24px;&quot;&gt;AIMessage (Image Agent)&lt;/font&gt;&lt;/div&gt;&lt;div&gt;&lt;font style=&quot;font-size: 24px;&quot;&gt;AIMessage (Text Content Agent)&lt;/font&gt;&lt;/div&gt;&lt;div&gt;&lt;font style=&quot;font-size: 24px;&quot;&gt;ToolMessage&lt;/font&gt;&lt;/div&gt;" style="rounded=0;whiteSpace=wrap;html=1;align=left;spacing=12;labelPosition=center;verticalLabelPosition=middle;verticalAlign=top;fillColor=#f5f5f5;fontColor=#333333;strokeColor=#666666;" vertex="1" parent="DfTiufG7eJcMm-ux6_9e-14">
                    <mxGeometry width="450" height="180" as="geometry"/>
                </mxCell>
                <mxCell id="DfTiufG7eJcMm-ux6_9e-9" value="" style="whiteSpace=wrap;html=1;aspect=fixed;fillColor=#d5e8d4;strokeColor=#82b366;" vertex="1" parent="DfTiufG7eJcMm-ux6_9e-14">
                    <mxGeometry x="200" y="20" width="20" height="20" as="geometry"/>
                </mxCell>
                <mxCell id="DfTiufG7eJcMm-ux6_9e-10" value="" style="whiteSpace=wrap;html=1;aspect=fixed;fillColor=#e1d5e7;strokeColor=#9673a6;" vertex="1" parent="DfTiufG7eJcMm-ux6_9e-14">
                    <mxGeometry x="300" y="80" width="20" height="20" as="geometry"/>
                </mxCell>
                <mxCell id="DfTiufG7eJcMm-ux6_9e-11" value="" style="whiteSpace=wrap;html=1;aspect=fixed;fillColor=#fff2cc;strokeColor=#d6b656;" vertex="1" parent="DfTiufG7eJcMm-ux6_9e-14">
                    <mxGeometry x="370" y="110" width="20" height="20" as="geometry"/>
                </mxCell>
                <mxCell id="DfTiufG7eJcMm-ux6_9e-12" value="" style="whiteSpace=wrap;html=1;aspect=fixed;fillColor=#f8cecc;strokeColor=#b85450;" vertex="1" parent="DfTiufG7eJcMm-ux6_9e-14">
                    <mxGeometry x="165.63" y="140" width="20" height="20" as="geometry"/>
                </mxCell>
                <mxCell id="DfTiufG7eJcMm-ux6_9e-16" value="" style="whiteSpace=wrap;html=1;aspect=fixed;fillColor=#dae8fc;strokeColor=#6c8ebf;" vertex="1" parent="DfTiufG7eJcMm-ux6_9e-14">
                    <mxGeometry x="390" y="50" width="20" height="20" as="geometry"/>
                </mxCell>
                <mxCell id="DfTiufG7eJcMm-ux6_9e-17" value="content: final_output.html" style="rounded=0;whiteSpace=wrap;html=1;fillColor=#fad9d5;strokeColor=#ae4132;align=left;spacing=12;" vertex="1" parent="kiytVpqm-zid71WI1DVR-1">
                    <mxGeometry x="-550" y="1610" width="540" height="60" as="geometry"/>
                </mxCell>
            </root>
        </mxGraphModel>
    </diagram>
    <diagram name="high level" id="oN9WJekFNAeXlz3rq01w">
        <mxGraphModel grid="1" page="1" gridSize="10" guides="1" tooltips="1" connect="1" arrows="1" fold="1" pageScale="1" pageWidth="850" pageHeight="1100" math="0" shadow="0">
            <root>
                <mxCell id="0"/>
                <mxCell id="1" parent="0"/>
                <mxCell id="_SdEStuTt8EgBXaoTIvZ-4" value="Marketing Agent" style="rounded=0;whiteSpace=wrap;html=1;fillColor=#f5f5f5;fontColor=#333333;strokeColor=#666666;labelPosition=center;verticalLabelPosition=top;align=center;verticalAlign=bottom;fontSize=14;fontStyle=1" vertex="1" parent="1">
                    <mxGeometry x="-300" y="-150" width="1230" height="870" as="geometry"/>
                </mxCell>
                <mxCell id="3oxinaO6pHxAoMzh0FOS-42" style="edgeStyle=orthogonalEdgeStyle;rounded=0;orthogonalLoop=1;jettySize=auto;html=1;entryX=0;entryY=0.5;entryDx=0;entryDy=0;endArrow=none;startFill=0;dashed=1;dashPattern=8 8;" edge="1" parent="1" source="3oxinaO6pHxAoMzh0FOS-20" target="3oxinaO6pHxAoMzh0FOS-41">
                    <mxGeometry relative="1" as="geometry"/>
                </mxCell>
                <mxCell id="3oxinaO6pHxAoMzh0FOS-38" style="edgeStyle=orthogonalEdgeStyle;rounded=1;orthogonalLoop=1;jettySize=auto;html=1;entryX=1;entryY=0.5;entryDx=0;entryDy=0;endArrow=none;startFill=0;curved=0;dashed=1;dashPattern=8 8;" edge="1" parent="1" source="3oxinaO6pHxAoMzh0FOS-1" target="3oxinaO6pHxAoMzh0FOS-36">
                    <mxGeometry relative="1" as="geometry"/>
                </mxCell>
                <mxCell id="3oxinaO6pHxAoMzh0FOS-11" value="" style="edgeStyle=orthogonalEdgeStyle;rounded=1;orthogonalLoop=1;jettySize=auto;html=1;strokeWidth=2;curved=0;entryX=0.5;entryY=0;entryDx=0;entryDy=0;" edge="1" parent="1" source="Wc-l9Fh8O7H_YrFntWPf-2" target="3oxinaO6pHxAoMzh0FOS-2">
                    <mxGeometry relative="1" as="geometry">
                        <mxPoint x="20" y="170" as="targetPoint"/>
                    </mxGeometry>
                </mxCell>
                <mxCell id="3oxinaO6pHxAoMzh0FOS-22" value="1" style="edgeLabel;html=1;align=center;verticalAlign=middle;resizable=0;points=[];" vertex="1" connectable="0" parent="3oxinaO6pHxAoMzh0FOS-11">
                    <mxGeometry x="-0.25" y="2" relative="1" as="geometry">
                        <mxPoint x="5" y="-22" as="offset"/>
                    </mxGeometry>
                </mxCell>
                <mxCell id="3oxinaO6pHxAoMzh0FOS-25" style="edgeStyle=orthogonalEdgeStyle;rounded=1;orthogonalLoop=1;jettySize=auto;html=1;entryX=0.5;entryY=0;entryDx=0;entryDy=0;strokeWidth=2;curved=0;" edge="1" parent="1" source="Wc-l9Fh8O7H_YrFntWPf-2" target="3oxinaO6pHxAoMzh0FOS-3">
                    <mxGeometry relative="1" as="geometry">
                        <mxPoint x="390" y="230" as="targetPoint"/>
                    </mxGeometry>
                </mxCell>
                <mxCell id="3oxinaO6pHxAoMzh0FOS-26" style="edgeStyle=orthogonalEdgeStyle;rounded=1;orthogonalLoop=1;jettySize=auto;html=1;entryX=0.5;entryY=0;entryDx=0;entryDy=0;strokeWidth=2;curved=0;" edge="1" parent="1" source="Wc-l9Fh8O7H_YrFntWPf-2" target="3oxinaO6pHxAoMzh0FOS-20">
                    <mxGeometry relative="1" as="geometry">
                        <mxPoint x="610" y="230" as="targetPoint"/>
                    </mxGeometry>
                </mxCell>
                <mxCell id="3oxinaO6pHxAoMzh0FOS-27" value="4" style="edgeLabel;html=1;align=center;verticalAlign=middle;resizable=0;points=[];" vertex="1" connectable="0" parent="3oxinaO6pHxAoMzh0FOS-26">
                    <mxGeometry x="-0.8353" y="3" relative="1" as="geometry">
                        <mxPoint x="28" y="-17" as="offset"/>
                    </mxGeometry>
                </mxCell>
                <mxCell id="Wc-l9Fh8O7H_YrFntWPf-2" value="orchestration" style="whiteSpace=wrap;html=1;aspect=fixed;strokeWidth=2;" vertex="1" parent="1">
                    <mxGeometry x="140" y="40" width="100" height="100" as="geometry"/>
                </mxCell>
                <mxCell id="3oxinaO6pHxAoMzh0FOS-17" style="edgeStyle=orthogonalEdgeStyle;rounded=1;orthogonalLoop=1;jettySize=auto;html=1;entryX=0.5;entryY=1;entryDx=0;entryDy=0;strokeWidth=2;curved=0;exitX=1;exitY=0.5;exitDx=0;exitDy=0;" edge="1" parent="1" source="3oxinaO6pHxAoMzh0FOS-1" target="Wc-l9Fh8O7H_YrFntWPf-2">
                    <mxGeometry relative="1" as="geometry">
                        <mxPoint x="90" y="490" as="sourcePoint"/>
                    </mxGeometry>
                </mxCell>
                <mxCell id="3oxinaO6pHxAoMzh0FOS-24" value="3" style="edgeLabel;html=1;align=center;verticalAlign=middle;resizable=0;points=[];" vertex="1" connectable="0" parent="3oxinaO6pHxAoMzh0FOS-17">
                    <mxGeometry x="0.0311" y="3" relative="1" as="geometry">
                        <mxPoint x="13" y="-48" as="offset"/>
                    </mxGeometry>
                </mxCell>
                <mxCell id="_SdEStuTt8EgBXaoTIvZ-14" style="edgeStyle=orthogonalEdgeStyle;rounded=0;orthogonalLoop=1;jettySize=auto;html=1;entryX=0.5;entryY=0;entryDx=0;entryDy=0;strokeWidth=2;" edge="1" parent="1" source="3oxinaO6pHxAoMzh0FOS-21" target="_SdEStuTt8EgBXaoTIvZ-13">
                    <mxGeometry relative="1" as="geometry"/>
                </mxCell>
                <mxCell id="3oxinaO6pHxAoMzh0FOS-21" value="document pdf" style="html=1;verticalLabelPosition=middle;align=center;labelBackgroundColor=#ffffff;verticalAlign=middle;strokeWidth=2;strokeColor=#000000;shadow=0;dashed=0;shape=mxgraph.ios7.icons.document;labelPosition=center;" vertex="1" parent="1">
                    <mxGeometry x="128.75" y="-580" width="125" height="140" as="geometry"/>
                </mxCell>
                <mxCell id="_SdEStuTt8EgBXaoTIvZ-11" style="edgeStyle=orthogonalEdgeStyle;rounded=1;orthogonalLoop=1;jettySize=auto;html=1;curved=0;strokeWidth=2;" edge="1" parent="1" source="3oxinaO6pHxAoMzh0FOS-28" target="Wc-l9Fh8O7H_YrFntWPf-2">
                    <mxGeometry relative="1" as="geometry"/>
                </mxCell>
                <mxCell id="3oxinaO6pHxAoMzh0FOS-28" value="START" style="ellipse;whiteSpace=wrap;html=1;aspect=fixed;strokeColor=#82b366;dashed=1;dashPattern=8 8;fillColor=#d5e8d4;" vertex="1" parent="1">
                    <mxGeometry x="150" y="-110" width="80" height="80" as="geometry"/>
                </mxCell>
                <mxCell id="3oxinaO6pHxAoMzh0FOS-29" value="END" style="ellipse;whiteSpace=wrap;html=1;aspect=fixed;strokeColor=#b85450;dashed=1;dashPattern=8 8;fillColor=#f8cecc;" vertex="1" parent="1">
                    <mxGeometry x="460" y="590" width="80" height="80" as="geometry"/>
                </mxCell>
                <mxCell id="3oxinaO6pHxAoMzh0FOS-33" style="edgeStyle=orthogonalEdgeStyle;rounded=1;orthogonalLoop=1;jettySize=auto;html=1;strokeWidth=2;curved=0;exitX=0.5;exitY=1;exitDx=0;exitDy=0;" edge="1" parent="1" source="3oxinaO6pHxAoMzh0FOS-20" target="3oxinaO6pHxAoMzh0FOS-29">
                    <mxGeometry relative="1" as="geometry">
                        <mxPoint x="610" y="390" as="sourcePoint"/>
                        <Array as="points">
                            <mxPoint x="610" y="470"/>
                            <mxPoint x="500" y="470"/>
                        </Array>
                    </mxGeometry>
                </mxCell>
                <mxCell id="3oxinaO6pHxAoMzh0FOS-34" style="edgeStyle=orthogonalEdgeStyle;rounded=1;orthogonalLoop=1;jettySize=auto;html=1;strokeWidth=2;curved=0;exitX=0.5;exitY=1;exitDx=0;exitDy=0;" edge="1" parent="1" source="3oxinaO6pHxAoMzh0FOS-3" target="3oxinaO6pHxAoMzh0FOS-29">
                    <mxGeometry relative="1" as="geometry">
                        <mxPoint x="390" y="390" as="sourcePoint"/>
                        <Array as="points">
                            <mxPoint x="390" y="470"/>
                            <mxPoint x="500" y="470"/>
                        </Array>
                    </mxGeometry>
                </mxCell>
                <mxCell id="3oxinaO6pHxAoMzh0FOS-35" value="5" style="edgeLabel;html=1;align=center;verticalAlign=middle;resizable=0;points=[];" connectable="0" vertex="1" parent="3oxinaO6pHxAoMzh0FOS-34">
                    <mxGeometry x="0.7032" y="-3" relative="1" as="geometry">
                        <mxPoint x="13" y="-4" as="offset"/>
                    </mxGeometry>
                </mxCell>
                <mxCell id="3oxinaO6pHxAoMzh0FOS-36" value="image generation tool" style="rounded=1;whiteSpace=wrap;html=1;fillColor=#ffe6cc;strokeColor=#d79b00;" vertex="1" parent="1">
                    <mxGeometry x="-260" y="370" width="140" height="70" as="geometry"/>
                </mxCell>
                <mxCell id="3oxinaO6pHxAoMzh0FOS-39" value="social media post tool" style="rounded=1;whiteSpace=wrap;html=1;fillColor=#ffe6cc;strokeColor=#d79b00;" vertex="1" parent="1">
                    <mxGeometry x="220" y="540" width="140" height="70" as="geometry"/>
                </mxCell>
                <mxCell id="3oxinaO6pHxAoMzh0FOS-40" style="edgeStyle=orthogonalEdgeStyle;rounded=1;orthogonalLoop=1;jettySize=auto;html=1;entryX=0.5;entryY=0;entryDx=0;entryDy=0;endArrow=none;startFill=0;curved=0;dashed=1;dashPattern=8 8;exitX=0;exitY=0.5;exitDx=0;exitDy=0;" edge="1" parent="1" source="3oxinaO6pHxAoMzh0FOS-3" target="3oxinaO6pHxAoMzh0FOS-39">
                    <mxGeometry relative="1" as="geometry">
                        <Array as="points">
                            <mxPoint x="290" y="310"/>
                        </Array>
                        <mxPoint x="320" y="310" as="sourcePoint"/>
                    </mxGeometry>
                </mxCell>
                <mxCell id="3oxinaO6pHxAoMzh0FOS-41" value="email tool" style="rounded=1;whiteSpace=wrap;html=1;fillColor=#ffe6cc;strokeColor=#d79b00;" vertex="1" parent="1">
                    <mxGeometry x="750" y="275" width="140" height="70" as="geometry"/>
                </mxCell>
                <mxCell id="_SdEStuTt8EgBXaoTIvZ-2" style="edgeStyle=orthogonalEdgeStyle;rounded=1;orthogonalLoop=1;jettySize=auto;html=1;entryX=0.5;entryY=0;entryDx=0;entryDy=0;curved=0;strokeWidth=2;" edge="1" parent="1" source="3oxinaO6pHxAoMzh0FOS-2" target="3oxinaO6pHxAoMzh0FOS-1">
                    <mxGeometry relative="1" as="geometry"/>
                </mxCell>
                <mxCell id="_SdEStuTt8EgBXaoTIvZ-3" value="2" style="edgeLabel;html=1;align=center;verticalAlign=middle;resizable=0;points=[];" connectable="0" vertex="1" parent="_SdEStuTt8EgBXaoTIvZ-2">
                    <mxGeometry x="-0.3231" y="2" relative="1" as="geometry">
                        <mxPoint x="18" y="8" as="offset"/>
                    </mxGeometry>
                </mxCell>
                <mxCell id="3oxinaO6pHxAoMzh0FOS-2" value="analysis/&lt;br&gt;summarization" style="whiteSpace=wrap;html=1;aspect=fixed;strokeWidth=2;" vertex="1" parent="1">
                    <mxGeometry x="-30" y="190" width="100" height="100" as="geometry"/>
                </mxCell>
                <mxCell id="3oxinaO6pHxAoMzh0FOS-1" value="image generation" style="whiteSpace=wrap;html=1;aspect=fixed;strokeWidth=2;" vertex="1" parent="1">
                    <mxGeometry x="-30" y="355" width="100" height="100" as="geometry"/>
                </mxCell>
                <mxCell id="3oxinaO6pHxAoMzh0FOS-3" value="Social Media Post" style="whiteSpace=wrap;html=1;aspect=fixed;strokeWidth=2;" vertex="1" parent="1">
                    <mxGeometry x="340" y="260" width="100" height="100" as="geometry"/>
                </mxCell>
                <mxCell id="3oxinaO6pHxAoMzh0FOS-20" value="Email Campaign" style="whiteSpace=wrap;html=1;aspect=fixed;strokeWidth=2;" vertex="1" parent="1">
                    <mxGeometry x="560" y="260" width="100" height="100" as="geometry"/>
                </mxCell>
                <mxCell id="_SdEStuTt8EgBXaoTIvZ-15" style="edgeStyle=orthogonalEdgeStyle;rounded=0;orthogonalLoop=1;jettySize=auto;html=1;strokeWidth=2;" edge="1" parent="1" source="_SdEStuTt8EgBXaoTIvZ-13" target="3oxinaO6pHxAoMzh0FOS-28">
                    <mxGeometry relative="1" as="geometry"/>
                </mxCell>
                <mxCell id="_SdEStuTt8EgBXaoTIvZ-13" value="document text" style="rounded=0;whiteSpace=wrap;html=1;strokeWidth=2;" vertex="1" parent="1">
                    <mxGeometry x="128.75" y="-350" width="122.5" height="120" as="geometry"/>
                </mxCell>
            </root>
        </mxGraphModel>
    </diagram>
</mxfile>